<svg width="75" height="70" viewBox="0 0 75 70" fill="none" xmlns="http://www.w3.org/2000/svg">
<mask id="mask0_557_1082" style="mask-type:luminance" maskUnits="userSpaceOnUse" x="6" y="57" width="33" height="13">
<path d="M6.91797 57.4824H38.918V69.8157H6.91797V57.4824Z" fill="white"/>
</mask>
<g mask="url(#mask0_557_1082)">
<path fill-rule="evenodd" clip-rule="evenodd" d="M12.5698 63.4574C15.2974 61.5749 19.6971 59.6549 24.4072 58.576C29.45 57.419 34.8475 57.2063 38.9138 58.945L38.7636 67.2662C34.7574 64.9428 29.4271 64.3643 24.4413 64.752C17.5614 65.293 11.3418 67.5977 10.2033 69.8148L9.90054 66.153L11.0667 63.2322L7.00275 66.2405L6.92383 63.742L13.1064 58.207L13.3007 61.4905L12.5698 63.4574Z" fill="url(#paint0_radial_557_1082)"/>
</g>
<path d="M73.1673 8.14446C73.209 8.73821 73.7611 8.61321 74.1882 8.65487C74.5736 8.69654 74.7455 8.44133 74.7871 8.05592C74.8705 7.37362 74.5736 6.86321 73.7194 6.43612C71.2871 5.24342 68.6882 4.983 66.0423 5.58196C61.7298 6.56633 57.9329 8.57154 54.3496 11.1288C47.1829 16.2903 40.959 22.4778 35.3705 29.3007C28.2871 38.0455 22.1882 47.4309 16.2559 56.9882C15.7871 57.7122 15.36 58.5247 14.8913 59.2903C14.8496 59.2903 14.808 59.2486 14.7611 59.207C14.8496 58.9517 14.8913 58.6965 14.9746 58.4361C17.4069 50.1184 20.4382 42.0559 23.5527 33.9518C25.8965 27.9361 28.0736 21.8372 29.0111 15.3945C29.4382 12.3632 29.6517 9.33717 29.0527 6.30592C28.0319 0.889249 23.4225 -1.4545 18.433 0.930915C16.3861 1.91529 14.6361 3.32154 13.058 4.94133C10.3705 7.67571 8.40691 10.8736 6.61524 14.2017C3.32878 20.259 0.854825 26.6132 0.130867 33.5247C-0.212884 36.6809 0.0891999 39.884 1.41212 42.8684C2.34962 44.957 3.84441 46.4101 6.18816 46.7486C9.81316 47.2174 12.7142 45.8111 15.0215 43.082C15.2767 42.7799 15.4434 42.3997 15.5319 42.0142C15.5736 41.8424 15.7038 41.6288 15.4434 41.5038C15.1882 41.332 14.933 41.332 14.6777 41.5455C14.5944 41.6288 14.5475 41.7174 14.4642 41.8007C12.8861 43.5924 11.0111 44.9153 8.70378 45.6392C6.69857 46.2382 5.16733 45.7278 3.92774 44.0195C3.67253 43.5924 3.41733 43.1653 3.20378 42.6965C1.70899 39.582 1.57878 36.2122 1.88087 32.8424C2.26628 28.832 3.45899 24.9517 4.95378 21.2382C7.2142 15.6913 10.1152 10.5715 14.209 6.13925C16.1309 4.0455 18.3444 2.38404 21.0788 1.44654C22.6986 0.847581 23.808 1.233 24.8288 2.63925C25.558 3.70696 26.0267 4.89967 26.1986 6.18092C26.834 9.80592 26.5371 13.4309 25.8965 17.0142C25.0423 21.6653 23.5944 26.1861 22.058 30.707C20.183 36.1288 18.0059 41.4622 16.4694 46.9622C15.1465 51.6549 13.61 56.2642 12.5475 60.9986C12.3757 61.8111 12.2038 62.6184 12.334 63.4309C12.4173 64.0247 13.2715 64.4517 13.61 64.0715C13.9121 63.6861 14.3392 63.4726 14.5944 63.0455C17.0267 58.6497 19.6257 54.384 22.4434 50.207C27.0944 43.1653 31.7871 36.1288 37.2455 29.6445C42.7507 23.1601 48.7194 17.1861 55.6309 12.2382C58.959 9.84758 62.5007 7.84237 66.4694 6.82154C68.3027 6.30592 70.1361 6.22258 71.9277 6.86321C72.5267 7.07675 73.0371 7.37362 73.1673 8.14446Z" fill="url(#paint1_radial_557_1082)"/>
<defs>
<radialGradient id="paint0_radial_557_1082" cx="0" cy="0" r="1" gradientUnits="userSpaceOnUse" gradientTransform="translate(29.6868 62.0072) rotate(100.108) scale(7.91471 20.3046)">
<stop offset="0.00887753" stop-color="#DEF9FA"/>
<stop offset="0.1723" stop-color="#BEF3F5"/>
<stop offset="0.4204" stop-color="#9DEDF0"/>
<stop offset="0.5512" stop-color="#7DE7EB"/>
<stop offset="0.7154" stop-color="#5CE1E6"/>
<stop offset="1" stop-color="#33BBCF"/>
</radialGradient>
<radialGradient id="paint1_radial_557_1082" cx="0" cy="0" r="1" gradientUnits="userSpaceOnUse" gradientTransform="translate(53.2256 22.9199) rotate(94.506) scale(41.3404 48.0766)">
<stop offset="0.00887753" stop-color="#DEF9FA"/>
<stop offset="0.1723" stop-color="#BEF3F5"/>
<stop offset="0.4204" stop-color="#9DEDF0"/>
<stop offset="0.5512" stop-color="#7DE7EB"/>
<stop offset="0.7154" stop-color="#5CE1E6"/>
<stop offset="1" stop-color="#33BBCF"/>
</radialGradient>
</defs>
</svg>
