<svg width="151" height="157" viewBox="0 0 151 157" fill="none" xmlns="http://www.w3.org/2000/svg">
<path d="M75.6864 149.826C34.324 149.826 0.817703 116.089 0.817703 74.9573C0.817703 33.826 34.324 0.0885468 75.6864 0.0885468C117.049 0.0885468 150.555 33.5948 150.555 74.9573C150.555 116.32 116.818 149.826 75.6864 149.826ZM75.6864 4.71042C36.8677 4.71042 5.43958 36.1354 5.43958 74.9573C5.43958 113.779 36.8677 145.204 75.6864 145.204C114.508 145.204 145.933 113.779 145.933 74.9573C145.933 36.1354 114.277 4.71042 75.6864 4.71042Z" fill="#00C4FF"/>
<path d="M25.5646 84.1743C24.2209 84.1743 23.2803 83.5055 22.7396 82.1618C22.1959 80.8212 21.9553 79.1618 22.0146 77.1868C22.0803 75.2055 22.3396 73.2212 22.7896 71.2368C23.2396 69.2555 23.7959 67.5962 24.4646 66.2618C25.1396 64.9212 25.8271 64.2493 26.5271 64.2493C27.7428 64.2493 28.4584 64.5212 28.6771 65.0618C28.9021 65.6055 28.8553 66.4493 28.5396 67.5993C28.2209 68.7493 27.8553 70.2055 27.4396 71.9618C27.0209 73.7118 26.8146 75.8055 26.8146 78.2368C26.9396 78.1055 27.0334 78.0087 27.1021 77.9493C27.1678 77.8837 27.2303 77.818 27.2896 77.7493L31.8021 70.1868C32.1834 69.5462 32.7084 68.6993 33.3771 67.6493C34.0521 66.593 34.7834 65.6337 35.5771 64.7743C36.3771 63.9087 37.1584 63.4743 37.9271 63.4743C39.4021 63.4743 40.3584 64.2243 40.8021 65.7243C41.2521 67.2243 41.4771 68.743 41.4771 70.2743C42.1771 70.1493 43.0334 69.5618 44.0521 68.5118C45.0771 67.4555 46.0053 66.543 46.8396 65.7743C47.2896 65.268 47.6896 64.8212 48.0396 64.4368C48.3896 64.0555 48.8178 63.7337 49.3271 63.4743C49.9678 63.1587 50.5428 62.9993 51.0521 62.9993C51.6928 62.9993 52.2396 63.2555 52.6896 63.7618C53.1303 64.2805 53.3834 65.2243 53.4521 66.5993C53.5178 67.968 53.4834 69.5462 53.3521 71.3368C53.2271 73.1212 53.0834 74.9087 52.9271 76.6993C52.7678 78.493 52.6896 80.0587 52.6896 81.3993C52.6896 84.3337 52.9271 86.393 53.4021 87.5743C53.8834 88.7587 54.5396 89.3493 55.3646 89.3493C56.3209 89.3493 57.3928 88.7118 58.5771 87.4368C59.7584 86.1555 60.9428 84.6493 62.1271 82.9243C63.3084 81.1993 64.3146 79.6368 65.1396 78.2368C65.5896 77.5305 66.0209 76.8243 66.4396 76.1243C66.8553 75.4243 67.5709 75.0743 68.5896 75.0743C68.7803 75.0743 68.9896 75.2055 69.2146 75.4618C69.4396 75.7118 69.5521 75.9962 69.5521 76.3118C69.5521 76.6962 69.3584 77.243 68.9771 77.9493C68.5928 78.6493 68.1928 79.3368 67.7771 80.0118C67.3584 80.6805 67.0271 81.2055 66.7771 81.5868C66.5178 82.0368 66.2928 82.4212 66.1021 82.7368C65.9084 83.0555 65.6553 83.4712 65.3396 83.9868C65.0803 84.3712 64.8209 84.7087 64.5646 84.9993C64.3146 85.2837 64.0271 85.6805 63.7021 86.1868C62.4928 87.9805 61.0396 89.5462 59.3396 90.8868C57.6459 92.2274 56.0053 92.8993 54.4146 92.8993C53.5146 92.8993 52.6459 92.6118 51.8146 92.0368C50.9896 91.4618 50.3209 90.4712 49.8146 89.0618C48.9146 86.6962 48.4803 84.2055 48.5146 81.5868C48.5459 78.9712 48.7553 76.418 49.1396 73.9243C49.5209 71.4337 49.7146 69.2618 49.7146 67.4118C49.0709 67.8555 48.2896 68.5868 47.3646 69.6118C46.4396 70.6305 45.4959 71.5712 44.5396 72.4368C43.5803 73.2962 42.6553 73.7243 41.7646 73.7243C40.2959 73.7243 39.2896 73.0243 38.7396 71.6243C38.1959 70.218 37.9271 68.8118 37.9271 67.4118C36.8428 68.1118 35.8053 69.3587 34.8146 71.1493C33.8209 72.9337 32.8303 74.818 31.8396 76.7993C30.8553 78.7743 29.8678 80.4837 28.8771 81.9243C27.8834 83.3587 26.8459 84.1087 25.7646 84.1743H25.5646Z" fill="#00C4FF"/>
<path d="M70.3125 84.1743C68.9688 84.1743 68.0282 83.5055 67.4875 82.1618C66.9438 80.8212 66.7032 79.1618 66.7625 77.1868C66.8282 75.2055 67.0875 73.2212 67.5375 71.2368C67.9875 69.2555 68.5438 67.5962 69.2125 66.2618C69.8875 64.9212 70.575 64.2493 71.275 64.2493C72.4907 64.2493 73.2063 64.5212 73.425 65.0618C73.65 65.6055 73.6032 66.4493 73.2875 67.5993C72.9688 68.7493 72.6032 70.2055 72.1875 71.9618C71.7688 73.7118 71.5625 75.8055 71.5625 78.2368C71.6875 78.1055 71.7813 78.0087 71.85 77.9493C71.9157 77.8837 71.9782 77.818 72.0375 77.7493L76.55 70.1868C76.9313 69.5462 77.4563 68.6993 78.125 67.6493C78.8 66.593 79.5313 65.6337 80.325 64.7743C81.125 63.9087 81.9063 63.4743 82.675 63.4743C84.15 63.4743 85.1063 64.2243 85.55 65.7243C86 67.2243 86.225 68.743 86.225 70.2743C86.925 70.1493 87.7813 69.5618 88.8 68.5118C89.825 67.4555 90.7532 66.543 91.5875 65.7743C92.0375 65.268 92.4375 64.8212 92.7875 64.4368C93.1375 64.0555 93.5657 63.7337 94.075 63.4743C94.7157 63.1587 95.2907 62.9993 95.8 62.9993C96.4407 62.9993 96.9875 63.2555 97.4375 63.7618C97.8782 64.2805 98.1313 65.2243 98.2 66.5993C98.2657 67.968 98.2313 69.5462 98.1 71.3368C97.975 73.1212 97.8313 74.9087 97.675 76.6993C97.5157 78.493 97.4375 80.0587 97.4375 81.3993C97.4375 84.3337 97.675 86.393 98.15 87.5743C98.6313 88.7587 99.2875 89.3493 100.113 89.3493C101.069 89.3493 102.141 88.7118 103.325 87.4368C104.506 86.1555 105.691 84.6493 106.875 82.9243C108.056 81.1993 109.063 79.6368 109.888 78.2368C110.338 77.5305 110.769 76.8243 111.188 76.1243C111.603 75.4243 112.319 75.0743 113.338 75.0743C113.528 75.0743 113.738 75.2055 113.963 75.4618C114.188 75.7118 114.3 75.9962 114.3 76.3118C114.3 76.6962 114.106 77.243 113.725 77.9493C113.341 78.6493 112.941 79.3368 112.525 80.0118C112.106 80.6805 111.775 81.2055 111.525 81.5868C111.266 82.0368 111.041 82.4212 110.85 82.7368C110.656 83.0555 110.403 83.4712 110.088 83.9868C109.828 84.3712 109.569 84.7087 109.313 84.9993C109.063 85.2837 108.775 85.6805 108.45 86.1868C107.241 87.9805 105.788 89.5462 104.088 90.8868C102.394 92.2274 100.753 92.8993 99.1625 92.8993C98.2625 92.8993 97.3938 92.6118 96.5625 92.0368C95.7375 91.4618 95.0688 90.4712 94.5625 89.0618C93.6625 86.6962 93.2282 84.2055 93.2625 81.5868C93.2938 78.9712 93.5032 76.418 93.8875 73.9243C94.2688 71.4337 94.4625 69.2618 94.4625 67.4118C93.8188 67.8555 93.0375 68.5868 92.1125 69.6118C91.1875 70.6305 90.2438 71.5712 89.2875 72.4368C88.3282 73.2962 87.4032 73.7243 86.5125 73.7243C85.0438 73.7243 84.0375 73.0243 83.4875 71.6243C82.9438 70.218 82.675 68.8118 82.675 67.4118C81.5907 68.1118 80.5532 69.3587 79.5625 71.1493C78.5688 72.9337 77.5782 74.818 76.5875 76.7993C75.6032 78.7743 74.6157 80.4837 73.625 81.9243C72.6313 83.3587 71.5938 84.1087 70.5125 84.1743H70.3125Z" fill="#00C4FF"/>
<path d="M109.985 84.6493C109.985 80.0493 110.098 75.4555 110.323 70.8618C110.548 66.2618 110.851 61.8212 111.235 57.5368C111.292 57.0868 111.417 56.0337 111.61 54.3743C111.801 52.718 112.054 50.7868 112.373 48.5868C112.698 46.3805 113.079 44.2212 113.523 42.1118C113.973 40.0055 114.485 38.2462 115.06 36.8368C115.635 35.4305 116.242 34.7243 116.885 34.7243C118.16 34.7243 118.892 35.0618 119.085 35.7368C119.276 36.4055 119.214 37.3118 118.898 38.4618C118.579 39.6118 118.292 40.9243 118.035 42.3993C117.201 47.1243 116.448 52.2368 115.773 57.7368C115.104 63.2305 114.598 68.693 114.248 74.1243C113.898 79.5493 113.723 84.5305 113.723 89.0618C113.848 88.9368 114.229 88.2555 114.873 87.0118C115.514 85.7618 116.326 84.1805 117.31 82.2618C118.301 80.3462 119.373 78.318 120.523 76.1743C121.673 74.0337 122.823 72.0212 123.973 70.1368C125.123 68.2555 126.16 66.7212 127.085 65.5368C128.017 64.3555 128.739 63.7618 129.248 63.7618C130.654 63.7618 131.276 64.0993 131.11 64.7743C130.951 65.443 130.426 66.3493 129.535 67.4993C128.642 68.6493 127.717 70.0243 126.76 71.6243C126.501 72.0087 126.26 72.3743 126.035 72.7243C125.81 73.0743 125.573 73.443 125.323 73.8243C124.748 74.7837 124.364 75.5337 124.173 76.0743C123.979 76.618 123.898 77.2868 123.923 78.0868C123.954 78.8868 124.067 80.2118 124.26 82.0618C124.392 83.4055 124.664 85.118 125.073 87.1993C125.489 89.2743 125.985 91.3493 126.56 93.4243C127.135 95.4993 127.648 97.1743 128.098 98.4493C128.604 99.6649 129.051 100.562 129.435 101.137C129.817 101.712 130.076 102.318 130.21 102.962C129.951 103.212 129.692 103.477 129.435 103.762C129.185 104.052 128.867 104.199 128.485 104.199C128.351 104.199 128.092 104.137 127.71 104.012C126.942 103.627 126.289 102.956 125.748 101.999C125.204 101.04 124.76 100.015 124.41 98.9243C124.06 97.8399 123.754 96.9149 123.498 96.1493C122.798 94.0399 122.223 91.8868 121.773 89.6868C121.323 87.4805 120.842 85.293 120.335 83.1243L116.123 92.3243C115.673 93.7243 115.273 95.1743 114.923 96.6743C114.573 98.1805 114.189 99.443 113.773 100.462C113.354 101.487 112.826 101.999 112.185 101.999C111.36 101.999 110.835 101.693 110.61 101.087C110.385 100.477 110.289 99.7274 110.323 98.8368C110.354 97.943 110.339 97.1149 110.273 96.3493C110.204 95.6399 110.139 95.093 110.073 94.7118C110.014 94.3274 109.985 93.6899 109.985 92.7993V84.6493Z" fill="#00C4FF"/>
<path d="M120.505 142.932C118.865 144.014 117.183 145.032 115.468 145.989C113.752 146.948 112.002 147.842 110.221 148.676C108.44 149.507 106.63 150.273 104.796 150.973C102.958 151.676 101.099 152.31 99.2177 152.876C97.3365 153.442 95.4333 153.942 93.5177 154.37C91.599 154.798 89.6677 155.16 87.724 155.448C85.7802 155.739 83.8271 155.957 81.8677 156.107C79.9052 156.254 77.9427 156.332 75.9771 156.342C74.0115 156.348 72.049 156.282 70.0865 156.148C68.1271 156.014 66.174 155.807 64.2271 155.532C62.2802 155.254 60.3458 154.91 58.4271 154.492C56.5052 154.076 54.6021 153.592 52.7146 153.039C50.8302 152.485 48.9646 151.864 47.1239 151.176C45.2833 150.489 43.4677 149.735 41.6802 148.917C39.8958 148.095 38.1396 147.214 36.4177 146.267C34.6927 145.32 33.0083 144.314 31.3583 143.245L41.2396 127.976C42.5208 128.804 43.8333 129.589 45.1708 130.323C46.5114 131.057 47.8739 131.745 49.2646 132.379C50.6521 133.017 52.0614 133.604 53.4927 134.139C54.9239 134.673 56.3708 135.154 57.8364 135.585C59.3021 136.017 60.7833 136.392 62.2739 136.714C63.7677 137.039 65.2708 137.307 66.7833 137.523C68.2958 137.735 69.8146 137.895 71.3365 138.001C72.8615 138.107 74.3865 138.154 75.9146 138.151C77.4427 138.145 78.9677 138.085 80.4896 137.97C82.0146 137.854 83.5302 137.682 85.0396 137.457C86.5521 137.232 88.0521 136.954 89.5427 136.62C91.0333 136.285 92.5115 135.898 93.974 135.457C95.4365 135.017 96.8802 134.526 98.3083 133.979C99.7333 133.435 101.14 132.839 102.524 132.195C103.908 131.548 105.268 130.851 106.602 130.107C107.933 129.364 109.24 128.57 110.518 127.732L120.505 142.932Z" fill="white"/>
<path d="M40.827 141.83L46.677 136.092L47.902 136.73L40.7895 143.317L39.602 142.717L40.8395 133.08L42.0645 133.717L40.802 141.817L40.827 141.83Z" fill="#00C4FF"/>
<path d="M60.9527 147.501L57.4027 146.701L55.8902 149.088L54.6527 148.813L59.9902 140.663L61.3527 140.976L62.5652 150.588L61.2652 150.301L60.9527 147.501ZM58.0027 145.738L60.7527 146.351L60.3402 142.138L60.3152 142.126L58.0027 145.738Z" fill="#00C4FF"/>
<path d="M75.9163 147.685L76.0663 151.598L74.8288 151.648L74.4788 142.535L78.6913 142.373C79.0663 142.367 79.4319 142.392 79.7913 142.448C80.1569 142.507 80.485 142.623 80.7788 142.798C81.0694 142.973 81.3069 143.217 81.4913 143.523C81.6725 143.832 81.7725 144.223 81.7913 144.698C81.8069 145.148 81.7538 145.517 81.6288 145.798C81.51 146.082 81.3569 146.31 81.1663 146.485C80.9819 146.66 80.7944 146.81 80.6038 146.935C80.71 147.004 80.8288 147.07 80.9538 147.135C81.085 147.195 81.2163 147.279 81.3413 147.385C81.4663 147.485 81.5694 147.635 81.6538 147.835C81.735 148.035 81.785 148.295 81.8038 148.61L81.8663 150.273C81.8725 150.523 81.9163 150.707 81.9913 150.823C82.0663 150.942 82.1944 151.048 82.3788 151.148L82.3913 151.36L80.8913 151.423C80.8413 151.282 80.7944 151.104 80.7538 150.885C80.7194 150.66 80.6913 150.432 80.6663 150.198C80.6413 149.957 80.6194 149.742 80.6038 149.548C80.5944 149.357 80.5913 149.22 80.5913 149.135C80.5819 148.885 80.5413 148.642 80.4663 148.398C80.3913 148.157 80.2319 147.957 79.9913 147.798C79.7475 147.632 79.3819 147.557 78.8913 147.573L75.9163 147.685ZM75.7538 143.535L75.8788 146.635L78.7288 146.535C79.0288 146.52 79.3194 146.47 79.6038 146.385C79.885 146.304 80.1163 146.145 80.2913 145.91C80.4663 145.67 80.5444 145.323 80.5288 144.873C80.51 144.523 80.4444 144.248 80.3288 144.048C80.2194 143.848 80.0725 143.707 79.8913 143.623C79.7163 143.532 79.5319 143.473 79.3413 143.448C79.1475 143.423 78.9788 143.417 78.8288 143.423L75.7538 143.535Z" fill="#00C4FF"/>
<path d="M93.4795 140.021L95.8295 148.834L94.642 149.146L92.292 140.334L93.4795 140.021Z" fill="#00C4FF"/>
<path d="M113.419 140.412L113.919 141.374L107.932 144.462L103.744 136.349L109.644 133.299L110.144 134.287L105.344 136.774L106.582 139.149L111.007 136.849L111.494 137.812L107.069 140.112L108.532 142.937L113.419 140.412Z" fill="#00C4FF"/>
<mask id="mask0_3_64" style="mask-type:luminance" maskUnits="userSpaceOnUse" x="0" y="0" width="151" height="150">
<path d="M0.817703 0.0885468H150.818V149.835H0.817703V0.0885468Z" fill="white"/>
</mask>
<g mask="url(#mask0_3_64)">
</g>
</svg>
