<svg width="20" height="20" viewBox="0 0 20 20" fill="none" xmlns="http://www.w3.org/2000/svg">
<path d="M8.89994 0.099977C4.29994 0.599977 0.59994 4.29998 0.0999403 8.79998C-0.50006 13.8 2.59994 18.1 6.99994 19.5V17.2C6.99994 17.2 6.59994 17.3 6.09994 17.3C4.69994 17.3 4.09994 16.1 3.99994 15.4C3.89994 15 3.69994 14.7 3.39994 14.4C3.09994 14.3 2.99994 14.3 2.99994 14.2C2.99994 14 3.29994 14 3.39994 14C3.99994 14 4.49994 14.7 4.69994 15C5.19994 15.8 5.79994 16 6.09994 16C6.49994 16 6.79994 15.9 6.99994 15.8C7.09994 15.1 7.39994 14.4 7.99994 14C5.69994 13.5 3.99994 12.2 3.99994 9.99998C3.99994 8.89998 4.49994 7.79998 5.19994 6.99998C5.09994 6.79998 4.99994 6.29998 4.99994 5.59998C4.99994 5.19998 4.99994 4.59998 5.29994 3.99998C5.29994 3.99998 6.69994 3.99998 8.09994 5.29998C8.59994 5.09998 9.29994 4.99998 9.99994 4.99998C10.6999 4.99998 11.3999 5.09998 11.9999 5.29998C13.2999 3.99998 14.7999 3.99998 14.7999 3.99998C14.9999 4.59998 14.9999 5.19998 14.9999 5.59998C14.9999 6.39998 14.8999 6.79998 14.7999 6.99998C15.4999 7.79998 15.9999 8.79998 15.9999 9.99998C15.9999 12.2 14.2999 13.5 11.9999 14C12.5999 14.5 12.9999 15.4 12.9999 16.3V19.6C17.0999 18.3 19.9999 14.5 19.9999 10.1C19.9999 4.09998 14.8999 -0.600023 8.89994 0.099977Z" fill="white"/>
</svg>
