<svg width="32" height="32" viewBox="0 0 32 32" fill="none" xmlns="http://www.w3.org/2000/svg">
<path d="M16 0C7.16337 0 0 7.16337 0 16C0 24.8366 7.16337 32 16 32C24.8366 32 32 24.8366 32 16C32 7.16337 24.8366 0 16 0ZM25.3479 16.8049L25.3407 20.2658L21.1875 16.1128L25.3479 11.9522V16.8049V16.8049ZM19.2774 16.1128L17.3628 18.0249C17 18.3899 16.5137 18.5904 16 18.5904C15.4841 18.5904 15 18.3899 14.635 18.0249L6.67013 10.0601C6.76244 9.53075 7.22431 9.12994 7.77825 9.12994H24.2216C24.7758 9.12994 25.2375 9.53081 25.3298 10.0601L19.2774 16.1128ZM6.65238 20.2629V11.9546L10.8125 16.1128L8.38281 18.5425L6.65238 20.2629ZM6.71537 22.1199L11.7676 17.0677L13.68 18.9801C14.2994 19.5994 15.1239 19.9419 16.0001 19.9419C16.8763 19.9419 17.6986 19.5994 18.3201 18.9801L20.2325 17.0677L25.2847 22.1199C25.1295 22.5569 24.7128 22.8701 24.2218 22.8701H7.77831C7.28738 22.8701 6.87062 22.5569 6.71537 22.1199Z" fill="white"/>
</svg>
