<svg width="13" height="13" viewBox="0 0 13 13" fill="none" xmlns="http://www.w3.org/2000/svg">
<path d="M0 3.64583H2.60417V12.5H0V3.64583ZM1.29427 2.60417H1.27969C0.502604 2.60417 0 2.025 0 1.30156C0 0.5625 0.518229 0 1.30937 0C2.10156 0 2.58958 0.5625 2.60417 1.30156C2.60417 2.02448 2.10156 2.60417 1.29427 2.60417ZM12.5 12.5H9.89583V7.76094C9.89583 6.61615 9.25781 5.8349 8.23333 5.8349C7.45156 5.8349 7.02865 6.36198 6.82344 6.87135C6.74844 7.05365 6.77083 7.55781 6.77083 7.8125V12.5H4.16667V3.64583H6.77083V5.00833C7.14635 4.42708 7.73438 3.64583 9.23854 3.64583C11.1021 3.64583 12.4995 4.81771 12.4995 7.43437L12.5 12.5Z" fill="white"/>
</svg>
